<mxfile host="app.diagrams.net" modified="2023-11-03T09:28:18.850Z" agent="5.0 (Macintosh; Intel Mac OS X 10_15_7) AppleWebKit/537.36 (KHTML, like Gecko) Chrome/118.0.0.0 Safari/537.36" etag="D7Csb0JNwA6-dvKa1dcl" version="20.2.8" type="github">
  <diagram id="R2lEEEUBdFMjLlhIrx00" name="Page-1">
    <mxGraphModel dx="1426" dy="793" grid="1" gridSize="10" guides="1" tooltips="1" connect="1" arrows="1" fold="1" page="0" pageScale="1" pageWidth="850" pageHeight="1100" math="0" shadow="0" extFonts="Permanent Marker^https://fonts.googleapis.com/css?family=Permanent+Marker">
      <root>
        <mxCell id="0" />
        <mxCell id="1" parent="0" />
        <mxCell id="xBfSmEdKa_RjBlRWM9iu-1" value="company" style="shape=table;startSize=30;container=1;collapsible=1;childLayout=tableLayout;fixedRows=1;rowLines=0;fontStyle=1;align=center;resizeLast=1;" vertex="1" parent="1">
          <mxGeometry x="780" y="920" width="250" height="90" as="geometry" />
        </mxCell>
        <mxCell id="xBfSmEdKa_RjBlRWM9iu-2" value="" style="shape=partialRectangle;collapsible=0;dropTarget=0;pointerEvents=0;fillColor=none;points=[[0,0.5],[1,0.5]];portConstraint=eastwest;top=0;left=0;right=0;bottom=1;" vertex="1" parent="xBfSmEdKa_RjBlRWM9iu-1">
          <mxGeometry y="30" width="250" height="30" as="geometry" />
        </mxCell>
        <mxCell id="xBfSmEdKa_RjBlRWM9iu-3" value="PK" style="shape=partialRectangle;overflow=hidden;connectable=0;fillColor=none;top=0;left=0;bottom=0;right=0;fontStyle=1;" vertex="1" parent="xBfSmEdKa_RjBlRWM9iu-2">
          <mxGeometry width="30" height="30" as="geometry">
            <mxRectangle width="30" height="30" as="alternateBounds" />
          </mxGeometry>
        </mxCell>
        <mxCell id="xBfSmEdKa_RjBlRWM9iu-4" value="company id int NOT NULL " style="shape=partialRectangle;overflow=hidden;connectable=0;fillColor=none;top=0;left=0;bottom=0;right=0;align=left;spacingLeft=6;fontStyle=5;" vertex="1" parent="xBfSmEdKa_RjBlRWM9iu-2">
          <mxGeometry x="30" width="220" height="30" as="geometry">
            <mxRectangle width="220" height="30" as="alternateBounds" />
          </mxGeometry>
        </mxCell>
        <mxCell id="xBfSmEdKa_RjBlRWM9iu-5" value="" style="shape=partialRectangle;collapsible=0;dropTarget=0;pointerEvents=0;fillColor=none;points=[[0,0.5],[1,0.5]];portConstraint=eastwest;top=0;left=0;right=0;bottom=0;" vertex="1" parent="xBfSmEdKa_RjBlRWM9iu-1">
          <mxGeometry y="60" width="250" height="30" as="geometry" />
        </mxCell>
        <mxCell id="xBfSmEdKa_RjBlRWM9iu-6" value="" style="shape=partialRectangle;overflow=hidden;connectable=0;fillColor=none;top=0;left=0;bottom=0;right=0;" vertex="1" parent="xBfSmEdKa_RjBlRWM9iu-5">
          <mxGeometry width="30" height="30" as="geometry">
            <mxRectangle width="30" height="30" as="alternateBounds" />
          </mxGeometry>
        </mxCell>
        <mxCell id="xBfSmEdKa_RjBlRWM9iu-7" value="" style="shape=partialRectangle;overflow=hidden;connectable=0;fillColor=none;top=0;left=0;bottom=0;right=0;align=left;spacingLeft=6;" vertex="1" parent="xBfSmEdKa_RjBlRWM9iu-5">
          <mxGeometry x="30" width="220" height="30" as="geometry">
            <mxRectangle width="220" height="30" as="alternateBounds" />
          </mxGeometry>
        </mxCell>
        <mxCell id="xBfSmEdKa_RjBlRWM9iu-9" value="company_subscription_modification_request" style="shape=table;startSize=30;container=1;collapsible=1;childLayout=tableLayout;fixedRows=1;rowLines=0;fontStyle=1;align=center;resizeLast=1;" vertex="1" parent="1">
          <mxGeometry x="710" y="1290" width="420" height="110" as="geometry" />
        </mxCell>
        <mxCell id="xBfSmEdKa_RjBlRWM9iu-10" value="" style="shape=partialRectangle;collapsible=0;dropTarget=0;pointerEvents=0;fillColor=none;points=[[0,0.5],[1,0.5]];portConstraint=eastwest;top=0;left=0;right=0;bottom=1;" vertex="1" parent="xBfSmEdKa_RjBlRWM9iu-9">
          <mxGeometry y="30" width="420" height="30" as="geometry" />
        </mxCell>
        <mxCell id="xBfSmEdKa_RjBlRWM9iu-11" value="PK" style="shape=partialRectangle;overflow=hidden;connectable=0;fillColor=none;top=0;left=0;bottom=0;right=0;fontStyle=1;" vertex="1" parent="xBfSmEdKa_RjBlRWM9iu-10">
          <mxGeometry width="30" height="30" as="geometry">
            <mxRectangle width="30" height="30" as="alternateBounds" />
          </mxGeometry>
        </mxCell>
        <mxCell id="xBfSmEdKa_RjBlRWM9iu-12" value="company_subscription_modification_request_id int NOT NULL " style="shape=partialRectangle;overflow=hidden;connectable=0;fillColor=none;top=0;left=0;bottom=0;right=0;align=left;spacingLeft=6;fontStyle=5;" vertex="1" parent="xBfSmEdKa_RjBlRWM9iu-10">
          <mxGeometry x="30" width="390" height="30" as="geometry">
            <mxRectangle width="390" height="30" as="alternateBounds" />
          </mxGeometry>
        </mxCell>
        <mxCell id="xBfSmEdKa_RjBlRWM9iu-13" value="" style="shape=partialRectangle;collapsible=0;dropTarget=0;pointerEvents=0;fillColor=none;points=[[0,0.5],[1,0.5]];portConstraint=eastwest;top=0;left=0;right=0;bottom=0;" vertex="1" parent="xBfSmEdKa_RjBlRWM9iu-9">
          <mxGeometry y="60" width="420" height="30" as="geometry" />
        </mxCell>
        <mxCell id="xBfSmEdKa_RjBlRWM9iu-14" value="" style="shape=partialRectangle;overflow=hidden;connectable=0;fillColor=none;top=0;left=0;bottom=0;right=0;" vertex="1" parent="xBfSmEdKa_RjBlRWM9iu-13">
          <mxGeometry width="30" height="30" as="geometry">
            <mxRectangle width="30" height="30" as="alternateBounds" />
          </mxGeometry>
        </mxCell>
        <mxCell id="xBfSmEdKa_RjBlRWM9iu-15" value="" style="shape=partialRectangle;overflow=hidden;connectable=0;fillColor=none;top=0;left=0;bottom=0;right=0;align=left;spacingLeft=6;" vertex="1" parent="xBfSmEdKa_RjBlRWM9iu-13">
          <mxGeometry x="30" width="390" height="30" as="geometry">
            <mxRectangle width="390" height="30" as="alternateBounds" />
          </mxGeometry>
        </mxCell>
        <mxCell id="xBfSmEdKa_RjBlRWM9iu-17" value="module" style="shape=table;startSize=30;container=1;collapsible=1;childLayout=tableLayout;fixedRows=1;rowLines=0;fontStyle=1;align=center;resizeLast=1;" vertex="1" parent="1">
          <mxGeometry x="600" y="280" width="250" height="100" as="geometry" />
        </mxCell>
        <mxCell id="xBfSmEdKa_RjBlRWM9iu-18" value="" style="shape=partialRectangle;collapsible=0;dropTarget=0;pointerEvents=0;fillColor=none;points=[[0,0.5],[1,0.5]];portConstraint=eastwest;top=0;left=0;right=0;bottom=1;" vertex="1" parent="xBfSmEdKa_RjBlRWM9iu-17">
          <mxGeometry y="30" width="250" height="30" as="geometry" />
        </mxCell>
        <mxCell id="xBfSmEdKa_RjBlRWM9iu-19" value="PK" style="shape=partialRectangle;overflow=hidden;connectable=0;fillColor=none;top=0;left=0;bottom=0;right=0;fontStyle=1;" vertex="1" parent="xBfSmEdKa_RjBlRWM9iu-18">
          <mxGeometry width="30" height="30" as="geometry">
            <mxRectangle width="30" height="30" as="alternateBounds" />
          </mxGeometry>
        </mxCell>
        <mxCell id="xBfSmEdKa_RjBlRWM9iu-20" value="module_id int NOT NULL " style="shape=partialRectangle;overflow=hidden;connectable=0;fillColor=none;top=0;left=0;bottom=0;right=0;align=left;spacingLeft=6;fontStyle=5;" vertex="1" parent="xBfSmEdKa_RjBlRWM9iu-18">
          <mxGeometry x="30" width="220" height="30" as="geometry">
            <mxRectangle width="220" height="30" as="alternateBounds" />
          </mxGeometry>
        </mxCell>
        <mxCell id="xBfSmEdKa_RjBlRWM9iu-21" value="" style="shape=partialRectangle;collapsible=0;dropTarget=0;pointerEvents=0;fillColor=none;points=[[0,0.5],[1,0.5]];portConstraint=eastwest;top=0;left=0;right=0;bottom=0;" vertex="1" parent="xBfSmEdKa_RjBlRWM9iu-17">
          <mxGeometry y="60" width="250" height="30" as="geometry" />
        </mxCell>
        <mxCell id="xBfSmEdKa_RjBlRWM9iu-22" value="" style="shape=partialRectangle;overflow=hidden;connectable=0;fillColor=none;top=0;left=0;bottom=0;right=0;" vertex="1" parent="xBfSmEdKa_RjBlRWM9iu-21">
          <mxGeometry width="30" height="30" as="geometry">
            <mxRectangle width="30" height="30" as="alternateBounds" />
          </mxGeometry>
        </mxCell>
        <mxCell id="xBfSmEdKa_RjBlRWM9iu-23" value="" style="shape=partialRectangle;overflow=hidden;connectable=0;fillColor=none;top=0;left=0;bottom=0;right=0;align=left;spacingLeft=6;" vertex="1" parent="xBfSmEdKa_RjBlRWM9iu-21">
          <mxGeometry x="30" width="220" height="30" as="geometry">
            <mxRectangle width="220" height="30" as="alternateBounds" />
          </mxGeometry>
        </mxCell>
        <mxCell id="xBfSmEdKa_RjBlRWM9iu-108" style="edgeStyle=orthogonalEdgeStyle;rounded=0;orthogonalLoop=1;jettySize=auto;html=1;entryX=0.5;entryY=1;entryDx=0;entryDy=0;endArrow=ERoneToMany;fontSize=12;startArrow=ERone;endFill=1;startFill=0;" edge="1" parent="1" source="xBfSmEdKa_RjBlRWM9iu-24" target="xBfSmEdKa_RjBlRWM9iu-17">
          <mxGeometry relative="1" as="geometry" />
        </mxCell>
        <mxCell id="xBfSmEdKa_RjBlRWM9iu-120" style="edgeStyle=orthogonalEdgeStyle;rounded=0;orthogonalLoop=1;jettySize=auto;html=1;exitX=0.5;exitY=1;exitDx=0;exitDy=0;endArrow=ERmany;fontSize=12;startArrow=ERmany;" edge="1" parent="1" source="xBfSmEdKa_RjBlRWM9iu-24">
          <mxGeometry relative="1" as="geometry">
            <mxPoint x="725" y="780" as="targetPoint" />
          </mxGeometry>
        </mxCell>
        <mxCell id="xBfSmEdKa_RjBlRWM9iu-24" value="feature" style="shape=table;startSize=30;container=1;collapsible=1;childLayout=tableLayout;fixedRows=1;rowLines=0;fontStyle=1;align=center;resizeLast=1;" vertex="1" parent="1">
          <mxGeometry x="600" y="440" width="250" height="150" as="geometry" />
        </mxCell>
        <mxCell id="xBfSmEdKa_RjBlRWM9iu-25" value="" style="shape=partialRectangle;collapsible=0;dropTarget=0;pointerEvents=0;fillColor=none;points=[[0,0.5],[1,0.5]];portConstraint=eastwest;top=0;left=0;right=0;bottom=1;" vertex="1" parent="xBfSmEdKa_RjBlRWM9iu-24">
          <mxGeometry y="30" width="250" height="30" as="geometry" />
        </mxCell>
        <mxCell id="xBfSmEdKa_RjBlRWM9iu-26" value="PK" style="shape=partialRectangle;overflow=hidden;connectable=0;fillColor=none;top=0;left=0;bottom=0;right=0;fontStyle=1;" vertex="1" parent="xBfSmEdKa_RjBlRWM9iu-25">
          <mxGeometry width="30" height="30" as="geometry">
            <mxRectangle width="30" height="30" as="alternateBounds" />
          </mxGeometry>
        </mxCell>
        <mxCell id="xBfSmEdKa_RjBlRWM9iu-27" value="feature_id int NOT NULL " style="shape=partialRectangle;overflow=hidden;connectable=0;fillColor=none;top=0;left=0;bottom=0;right=0;align=left;spacingLeft=6;fontStyle=5;" vertex="1" parent="xBfSmEdKa_RjBlRWM9iu-25">
          <mxGeometry x="30" width="220" height="30" as="geometry">
            <mxRectangle width="220" height="30" as="alternateBounds" />
          </mxGeometry>
        </mxCell>
        <mxCell id="xBfSmEdKa_RjBlRWM9iu-28" value="" style="shape=partialRectangle;collapsible=0;dropTarget=0;pointerEvents=0;fillColor=none;points=[[0,0.5],[1,0.5]];portConstraint=eastwest;top=0;left=0;right=0;bottom=0;" vertex="1" parent="xBfSmEdKa_RjBlRWM9iu-24">
          <mxGeometry y="60" width="250" height="30" as="geometry" />
        </mxCell>
        <mxCell id="xBfSmEdKa_RjBlRWM9iu-29" value="FK1" style="shape=partialRectangle;overflow=hidden;connectable=0;fillColor=none;top=0;left=0;bottom=0;right=0;" vertex="1" parent="xBfSmEdKa_RjBlRWM9iu-28">
          <mxGeometry width="30" height="30" as="geometry">
            <mxRectangle width="30" height="30" as="alternateBounds" />
          </mxGeometry>
        </mxCell>
        <mxCell id="xBfSmEdKa_RjBlRWM9iu-30" value="module_id " style="shape=partialRectangle;overflow=hidden;connectable=0;fillColor=none;top=0;left=0;bottom=0;right=0;align=left;spacingLeft=6;" vertex="1" parent="xBfSmEdKa_RjBlRWM9iu-28">
          <mxGeometry x="30" width="220" height="30" as="geometry">
            <mxRectangle width="220" height="30" as="alternateBounds" />
          </mxGeometry>
        </mxCell>
        <mxCell id="xBfSmEdKa_RjBlRWM9iu-68" style="edgeStyle=orthogonalEdgeStyle;rounded=0;orthogonalLoop=1;jettySize=auto;html=1;endArrow=ERoneToMany;fontSize=12;startArrow=ERone;endFill=1;startFill=0;" edge="1" parent="1" source="xBfSmEdKa_RjBlRWM9iu-32">
          <mxGeometry relative="1" as="geometry">
            <mxPoint x="430" y="660" as="targetPoint" />
          </mxGeometry>
        </mxCell>
        <mxCell id="xBfSmEdKa_RjBlRWM9iu-92" style="edgeStyle=orthogonalEdgeStyle;rounded=0;orthogonalLoop=1;jettySize=auto;html=1;entryX=0.28;entryY=-0.017;entryDx=0;entryDy=0;entryPerimeter=0;endArrow=ERoneToMany;fontSize=12;startArrow=ERone;endFill=1;startFill=0;" edge="1" parent="1" source="xBfSmEdKa_RjBlRWM9iu-32" target="xBfSmEdKa_RjBlRWM9iu-75">
          <mxGeometry relative="1" as="geometry" />
        </mxCell>
        <mxCell id="xBfSmEdKa_RjBlRWM9iu-32" value="role" style="shape=table;startSize=30;container=1;collapsible=1;childLayout=tableLayout;fixedRows=1;rowLines=0;fontStyle=1;align=center;resizeLast=1;" vertex="1" parent="1">
          <mxGeometry x="90" y="610" width="250" height="100" as="geometry" />
        </mxCell>
        <mxCell id="xBfSmEdKa_RjBlRWM9iu-33" value="" style="shape=partialRectangle;collapsible=0;dropTarget=0;pointerEvents=0;fillColor=none;points=[[0,0.5],[1,0.5]];portConstraint=eastwest;top=0;left=0;right=0;bottom=1;" vertex="1" parent="xBfSmEdKa_RjBlRWM9iu-32">
          <mxGeometry y="30" width="250" height="30" as="geometry" />
        </mxCell>
        <mxCell id="xBfSmEdKa_RjBlRWM9iu-34" value="PK" style="shape=partialRectangle;overflow=hidden;connectable=0;fillColor=none;top=0;left=0;bottom=0;right=0;fontStyle=1;" vertex="1" parent="xBfSmEdKa_RjBlRWM9iu-33">
          <mxGeometry width="30" height="30" as="geometry">
            <mxRectangle width="30" height="30" as="alternateBounds" />
          </mxGeometry>
        </mxCell>
        <mxCell id="xBfSmEdKa_RjBlRWM9iu-35" value="role_id int NOT NULL " style="shape=partialRectangle;overflow=hidden;connectable=0;fillColor=none;top=0;left=0;bottom=0;right=0;align=left;spacingLeft=6;fontStyle=5;" vertex="1" parent="xBfSmEdKa_RjBlRWM9iu-33">
          <mxGeometry x="30" width="220" height="30" as="geometry">
            <mxRectangle width="220" height="30" as="alternateBounds" />
          </mxGeometry>
        </mxCell>
        <mxCell id="xBfSmEdKa_RjBlRWM9iu-36" value="" style="shape=partialRectangle;collapsible=0;dropTarget=0;pointerEvents=0;fillColor=none;points=[[0,0.5],[1,0.5]];portConstraint=eastwest;top=0;left=0;right=0;bottom=0;" vertex="1" parent="xBfSmEdKa_RjBlRWM9iu-32">
          <mxGeometry y="60" width="250" height="30" as="geometry" />
        </mxCell>
        <mxCell id="xBfSmEdKa_RjBlRWM9iu-37" value="" style="shape=partialRectangle;overflow=hidden;connectable=0;fillColor=none;top=0;left=0;bottom=0;right=0;" vertex="1" parent="xBfSmEdKa_RjBlRWM9iu-36">
          <mxGeometry width="30" height="30" as="geometry">
            <mxRectangle width="30" height="30" as="alternateBounds" />
          </mxGeometry>
        </mxCell>
        <mxCell id="xBfSmEdKa_RjBlRWM9iu-38" value="company_id" style="shape=partialRectangle;overflow=hidden;connectable=0;fillColor=none;top=0;left=0;bottom=0;right=0;align=left;spacingLeft=6;" vertex="1" parent="xBfSmEdKa_RjBlRWM9iu-36">
          <mxGeometry x="30" width="220" height="30" as="geometry">
            <mxRectangle width="220" height="30" as="alternateBounds" />
          </mxGeometry>
        </mxCell>
        <mxCell id="xBfSmEdKa_RjBlRWM9iu-39" value="" style="shape=partialRectangle;overflow=hidden;connectable=0;fillColor=none;top=0;left=0;bottom=0;right=0;align=left;spacingLeft=6;" vertex="1" parent="1">
          <mxGeometry x="130" y="610" width="220" height="30" as="geometry">
            <mxRectangle width="220" height="30" as="alternateBounds" />
          </mxGeometry>
        </mxCell>
        <mxCell id="xBfSmEdKa_RjBlRWM9iu-104" style="edgeStyle=orthogonalEdgeStyle;rounded=0;orthogonalLoop=1;jettySize=auto;html=1;entryX=1.012;entryY=0.8;entryDx=0;entryDy=0;entryPerimeter=0;endArrow=ERoneToMany;fontSize=12;startArrow=ERone;endFill=1;startFill=0;" edge="1" parent="1" source="xBfSmEdKa_RjBlRWM9iu-40" target="xBfSmEdKa_RjBlRWM9iu-48">
          <mxGeometry relative="1" as="geometry" />
        </mxCell>
        <mxCell id="xBfSmEdKa_RjBlRWM9iu-105" style="edgeStyle=orthogonalEdgeStyle;rounded=0;orthogonalLoop=1;jettySize=auto;html=1;entryX=1.01;entryY=0.8;entryDx=0;entryDy=0;entryPerimeter=0;endArrow=ERoneToMany;fontSize=12;startArrow=ERone;endFill=1;startFill=0;" edge="1" parent="1" source="xBfSmEdKa_RjBlRWM9iu-40" target="xBfSmEdKa_RjBlRWM9iu-98">
          <mxGeometry relative="1" as="geometry" />
        </mxCell>
        <mxCell id="xBfSmEdKa_RjBlRWM9iu-40" value="subscription_template" style="shape=table;startSize=30;container=1;collapsible=1;childLayout=tableLayout;fixedRows=1;rowLines=0;fontStyle=1;align=center;resizeLast=1;" vertex="1" parent="1">
          <mxGeometry x="1260" y="440" width="220" height="110" as="geometry" />
        </mxCell>
        <mxCell id="xBfSmEdKa_RjBlRWM9iu-41" value="" style="shape=partialRectangle;collapsible=0;dropTarget=0;pointerEvents=0;fillColor=none;points=[[0,0.5],[1,0.5]];portConstraint=eastwest;top=0;left=0;right=0;bottom=1;" vertex="1" parent="xBfSmEdKa_RjBlRWM9iu-40">
          <mxGeometry y="30" width="220" height="30" as="geometry" />
        </mxCell>
        <mxCell id="xBfSmEdKa_RjBlRWM9iu-42" value="PK" style="shape=partialRectangle;overflow=hidden;connectable=0;fillColor=none;top=0;left=0;bottom=0;right=0;fontStyle=1;" vertex="1" parent="xBfSmEdKa_RjBlRWM9iu-41">
          <mxGeometry width="30" height="30" as="geometry">
            <mxRectangle width="30" height="30" as="alternateBounds" />
          </mxGeometry>
        </mxCell>
        <mxCell id="xBfSmEdKa_RjBlRWM9iu-43" value="template_id int NOT NULL " style="shape=partialRectangle;overflow=hidden;connectable=0;fillColor=none;top=0;left=0;bottom=0;right=0;align=left;spacingLeft=6;fontStyle=5;" vertex="1" parent="xBfSmEdKa_RjBlRWM9iu-41">
          <mxGeometry x="30" width="190" height="30" as="geometry">
            <mxRectangle width="190" height="30" as="alternateBounds" />
          </mxGeometry>
        </mxCell>
        <mxCell id="xBfSmEdKa_RjBlRWM9iu-44" value="" style="shape=partialRectangle;collapsible=0;dropTarget=0;pointerEvents=0;fillColor=none;points=[[0,0.5],[1,0.5]];portConstraint=eastwest;top=0;left=0;right=0;bottom=0;" vertex="1" parent="xBfSmEdKa_RjBlRWM9iu-40">
          <mxGeometry y="60" width="220" height="30" as="geometry" />
        </mxCell>
        <mxCell id="xBfSmEdKa_RjBlRWM9iu-45" value="" style="shape=partialRectangle;overflow=hidden;connectable=0;fillColor=none;top=0;left=0;bottom=0;right=0;" vertex="1" parent="xBfSmEdKa_RjBlRWM9iu-44">
          <mxGeometry width="30" height="30" as="geometry">
            <mxRectangle width="30" height="30" as="alternateBounds" />
          </mxGeometry>
        </mxCell>
        <mxCell id="xBfSmEdKa_RjBlRWM9iu-46" value="" style="shape=partialRectangle;overflow=hidden;connectable=0;fillColor=none;top=0;left=0;bottom=0;right=0;align=left;spacingLeft=6;" vertex="1" parent="xBfSmEdKa_RjBlRWM9iu-44">
          <mxGeometry x="30" width="190" height="30" as="geometry">
            <mxRectangle width="190" height="30" as="alternateBounds" />
          </mxGeometry>
        </mxCell>
        <mxCell id="xBfSmEdKa_RjBlRWM9iu-56" style="edgeStyle=orthogonalEdgeStyle;rounded=0;orthogonalLoop=1;jettySize=auto;html=1;exitX=1;exitY=0.5;exitDx=0;exitDy=0;entryX=0;entryY=0.5;entryDx=0;entryDy=0;endArrow=ERoneToMany;startArrow=ERone;endFill=1;startFill=0;fontSize=12;" edge="1" parent="1" source="xBfSmEdKa_RjBlRWM9iu-25" target="xBfSmEdKa_RjBlRWM9iu-48">
          <mxGeometry relative="1" as="geometry" />
        </mxCell>
        <mxCell id="xBfSmEdKa_RjBlRWM9iu-66" value="" style="group" vertex="1" connectable="0" parent="1">
          <mxGeometry x="410" y="600" width="250" height="120" as="geometry" />
        </mxCell>
        <mxCell id="xBfSmEdKa_RjBlRWM9iu-57" value="role_feature" style="shape=table;startSize=30;container=1;collapsible=1;childLayout=tableLayout;fixedRows=1;rowLines=0;fontStyle=1;align=center;resizeLast=1;movable=1;resizable=1;rotatable=1;deletable=1;editable=1;connectable=1;" vertex="1" parent="xBfSmEdKa_RjBlRWM9iu-66">
          <mxGeometry x="20" width="250" height="120" as="geometry" />
        </mxCell>
        <mxCell id="xBfSmEdKa_RjBlRWM9iu-58" value="" style="shape=partialRectangle;collapsible=0;dropTarget=0;pointerEvents=0;fillColor=none;points=[[0,0.5],[1,0.5]];portConstraint=eastwest;top=0;left=0;right=0;bottom=1;movable=0;resizable=0;rotatable=0;deletable=0;editable=0;connectable=0;" vertex="1" parent="xBfSmEdKa_RjBlRWM9iu-57">
          <mxGeometry y="30" width="250" height="30" as="geometry" />
        </mxCell>
        <mxCell id="xBfSmEdKa_RjBlRWM9iu-59" value="PK" style="shape=partialRectangle;overflow=hidden;connectable=0;fillColor=none;top=0;left=0;bottom=0;right=0;fontStyle=1;movable=0;resizable=0;rotatable=0;deletable=0;editable=0;" vertex="1" parent="xBfSmEdKa_RjBlRWM9iu-58">
          <mxGeometry width="30" height="30" as="geometry">
            <mxRectangle width="30" height="30" as="alternateBounds" />
          </mxGeometry>
        </mxCell>
        <mxCell id="xBfSmEdKa_RjBlRWM9iu-60" value="id int NOT NULL " style="shape=partialRectangle;overflow=hidden;connectable=0;fillColor=none;top=0;left=0;bottom=0;right=0;align=left;spacingLeft=6;fontStyle=5;movable=0;resizable=0;rotatable=0;deletable=0;editable=0;" vertex="1" parent="xBfSmEdKa_RjBlRWM9iu-58">
          <mxGeometry x="30" width="220" height="30" as="geometry">
            <mxRectangle width="220" height="30" as="alternateBounds" />
          </mxGeometry>
        </mxCell>
        <mxCell id="xBfSmEdKa_RjBlRWM9iu-61" value="" style="shape=partialRectangle;collapsible=0;dropTarget=0;pointerEvents=0;fillColor=none;points=[[0,0.5],[1,0.5]];portConstraint=eastwest;top=0;left=0;right=0;bottom=0;movable=0;resizable=0;rotatable=0;deletable=0;editable=0;connectable=0;" vertex="1" parent="xBfSmEdKa_RjBlRWM9iu-57">
          <mxGeometry y="60" width="250" height="30" as="geometry" />
        </mxCell>
        <mxCell id="xBfSmEdKa_RjBlRWM9iu-62" value="" style="shape=partialRectangle;overflow=hidden;connectable=0;fillColor=none;top=0;left=0;bottom=0;right=0;movable=0;resizable=0;rotatable=0;deletable=0;editable=0;" vertex="1" parent="xBfSmEdKa_RjBlRWM9iu-61">
          <mxGeometry width="30" height="30" as="geometry">
            <mxRectangle width="30" height="30" as="alternateBounds" />
          </mxGeometry>
        </mxCell>
        <mxCell id="xBfSmEdKa_RjBlRWM9iu-63" value="role_id" style="shape=partialRectangle;overflow=hidden;connectable=0;fillColor=none;top=0;left=0;bottom=0;right=0;align=left;spacingLeft=6;movable=0;resizable=0;rotatable=0;deletable=0;editable=0;" vertex="1" parent="xBfSmEdKa_RjBlRWM9iu-61">
          <mxGeometry x="30" width="220" height="30" as="geometry">
            <mxRectangle width="220" height="30" as="alternateBounds" />
          </mxGeometry>
        </mxCell>
        <mxCell id="xBfSmEdKa_RjBlRWM9iu-64" value="feature_id" style="shape=partialRectangle;overflow=hidden;connectable=1;fillColor=none;top=0;left=0;bottom=0;right=0;align=left;spacingLeft=6;movable=1;resizable=1;rotatable=1;deletable=1;editable=1;" vertex="1" parent="xBfSmEdKa_RjBlRWM9iu-66">
          <mxGeometry x="50" y="90" width="220" height="30" as="geometry">
            <mxRectangle width="220" height="30" as="alternateBounds" />
          </mxGeometry>
        </mxCell>
        <mxCell id="xBfSmEdKa_RjBlRWM9iu-67" value="" style="group" vertex="1" connectable="0" parent="1">
          <mxGeometry x="960" y="440" width="250" height="120" as="geometry" />
        </mxCell>
        <mxCell id="xBfSmEdKa_RjBlRWM9iu-47" value="subscription_template_feature" style="shape=table;startSize=30;container=1;collapsible=1;childLayout=tableLayout;fixedRows=1;rowLines=0;fontStyle=1;align=center;resizeLast=1;" vertex="1" parent="xBfSmEdKa_RjBlRWM9iu-67">
          <mxGeometry width="250" height="120" as="geometry" />
        </mxCell>
        <mxCell id="xBfSmEdKa_RjBlRWM9iu-48" value="" style="shape=partialRectangle;collapsible=0;dropTarget=0;pointerEvents=0;fillColor=none;points=[[0,0.5],[1,0.5]];portConstraint=eastwest;top=0;left=0;right=0;bottom=1;" vertex="1" parent="xBfSmEdKa_RjBlRWM9iu-47">
          <mxGeometry y="30" width="250" height="30" as="geometry" />
        </mxCell>
        <mxCell id="xBfSmEdKa_RjBlRWM9iu-49" value="PK" style="shape=partialRectangle;overflow=hidden;connectable=0;fillColor=none;top=0;left=0;bottom=0;right=0;fontStyle=1;" vertex="1" parent="xBfSmEdKa_RjBlRWM9iu-48">
          <mxGeometry width="30" height="30" as="geometry">
            <mxRectangle width="30" height="30" as="alternateBounds" />
          </mxGeometry>
        </mxCell>
        <mxCell id="xBfSmEdKa_RjBlRWM9iu-50" value="id int NOT NULL " style="shape=partialRectangle;overflow=hidden;connectable=0;fillColor=none;top=0;left=0;bottom=0;right=0;align=left;spacingLeft=6;fontStyle=5;" vertex="1" parent="xBfSmEdKa_RjBlRWM9iu-48">
          <mxGeometry x="30" width="220" height="30" as="geometry">
            <mxRectangle width="220" height="30" as="alternateBounds" />
          </mxGeometry>
        </mxCell>
        <mxCell id="xBfSmEdKa_RjBlRWM9iu-51" value="" style="shape=partialRectangle;collapsible=0;dropTarget=0;pointerEvents=0;fillColor=none;points=[[0,0.5],[1,0.5]];portConstraint=eastwest;top=0;left=0;right=0;bottom=0;" vertex="1" parent="xBfSmEdKa_RjBlRWM9iu-47">
          <mxGeometry y="60" width="250" height="30" as="geometry" />
        </mxCell>
        <mxCell id="xBfSmEdKa_RjBlRWM9iu-52" value="" style="shape=partialRectangle;overflow=hidden;connectable=0;fillColor=none;top=0;left=0;bottom=0;right=0;" vertex="1" parent="xBfSmEdKa_RjBlRWM9iu-51">
          <mxGeometry width="30" height="30" as="geometry">
            <mxRectangle width="30" height="30" as="alternateBounds" />
          </mxGeometry>
        </mxCell>
        <mxCell id="xBfSmEdKa_RjBlRWM9iu-53" value="template_id" style="shape=partialRectangle;overflow=hidden;connectable=0;fillColor=none;top=0;left=0;bottom=0;right=0;align=left;spacingLeft=6;" vertex="1" parent="xBfSmEdKa_RjBlRWM9iu-51">
          <mxGeometry x="30" width="220" height="30" as="geometry">
            <mxRectangle width="220" height="30" as="alternateBounds" />
          </mxGeometry>
        </mxCell>
        <mxCell id="xBfSmEdKa_RjBlRWM9iu-54" value="feature_id" style="shape=partialRectangle;overflow=hidden;connectable=0;fillColor=none;top=0;left=0;bottom=0;right=0;align=left;spacingLeft=6;" vertex="1" parent="xBfSmEdKa_RjBlRWM9iu-67">
          <mxGeometry x="30" y="90" width="220" height="30" as="geometry">
            <mxRectangle width="220" height="30" as="alternateBounds" />
          </mxGeometry>
        </mxCell>
        <mxCell id="xBfSmEdKa_RjBlRWM9iu-123" style="edgeStyle=orthogonalEdgeStyle;rounded=0;orthogonalLoop=1;jettySize=auto;html=1;entryX=1;entryY=0.5;entryDx=0;entryDy=0;endArrow=ERoneToMany;fontSize=12;startArrow=ERone;endFill=1;startFill=0;" edge="1" parent="1" source="xBfSmEdKa_RjBlRWM9iu-83" target="xBfSmEdKa_RjBlRWM9iu-81">
          <mxGeometry relative="1" as="geometry" />
        </mxCell>
        <mxCell id="xBfSmEdKa_RjBlRWM9iu-83" value="company_user" style="shape=table;startSize=30;container=1;collapsible=1;childLayout=tableLayout;fixedRows=1;rowLines=0;fontStyle=1;align=center;resizeLast=1;movable=1;resizable=1;rotatable=1;deletable=1;editable=1;connectable=1;" vertex="1" parent="1">
          <mxGeometry x="440" y="920" width="240" height="90" as="geometry" />
        </mxCell>
        <mxCell id="xBfSmEdKa_RjBlRWM9iu-84" value="" style="shape=partialRectangle;collapsible=0;dropTarget=0;pointerEvents=0;fillColor=none;points=[[0,0.5],[1,0.5]];portConstraint=eastwest;top=0;left=0;right=0;bottom=1;movable=0;resizable=0;rotatable=0;deletable=0;editable=0;connectable=0;" vertex="1" parent="xBfSmEdKa_RjBlRWM9iu-83">
          <mxGeometry y="30" width="240" height="30" as="geometry" />
        </mxCell>
        <mxCell id="xBfSmEdKa_RjBlRWM9iu-85" value="PK" style="shape=partialRectangle;overflow=hidden;connectable=0;fillColor=none;top=0;left=0;bottom=0;right=0;fontStyle=1;movable=0;resizable=0;rotatable=0;deletable=0;editable=0;" vertex="1" parent="xBfSmEdKa_RjBlRWM9iu-84">
          <mxGeometry width="30" height="30" as="geometry">
            <mxRectangle width="30" height="30" as="alternateBounds" />
          </mxGeometry>
        </mxCell>
        <mxCell id="xBfSmEdKa_RjBlRWM9iu-86" value="user_id int NOT NULL " style="shape=partialRectangle;overflow=hidden;connectable=1;fillColor=none;top=0;left=0;bottom=0;right=0;align=left;spacingLeft=6;fontStyle=5;movable=1;resizable=1;rotatable=1;deletable=1;editable=1;" vertex="1" parent="xBfSmEdKa_RjBlRWM9iu-84">
          <mxGeometry x="30" width="210" height="30" as="geometry">
            <mxRectangle width="210" height="30" as="alternateBounds" />
          </mxGeometry>
        </mxCell>
        <mxCell id="xBfSmEdKa_RjBlRWM9iu-87" value="" style="shape=partialRectangle;collapsible=0;dropTarget=0;pointerEvents=0;fillColor=none;points=[[0,0.5],[1,0.5]];portConstraint=eastwest;top=0;left=0;right=0;bottom=0;movable=0;resizable=0;rotatable=0;deletable=0;editable=0;connectable=0;" vertex="1" parent="xBfSmEdKa_RjBlRWM9iu-83">
          <mxGeometry y="60" width="240" height="30" as="geometry" />
        </mxCell>
        <mxCell id="xBfSmEdKa_RjBlRWM9iu-88" value="" style="shape=partialRectangle;overflow=hidden;connectable=0;fillColor=none;top=0;left=0;bottom=0;right=0;movable=0;resizable=0;rotatable=0;deletable=0;editable=0;" vertex="1" parent="xBfSmEdKa_RjBlRWM9iu-87">
          <mxGeometry width="30" height="30" as="geometry">
            <mxRectangle width="30" height="30" as="alternateBounds" />
          </mxGeometry>
        </mxCell>
        <mxCell id="xBfSmEdKa_RjBlRWM9iu-89" value="company_id" style="shape=partialRectangle;overflow=hidden;connectable=1;fillColor=none;top=0;left=0;bottom=0;right=0;align=left;spacingLeft=6;movable=1;resizable=1;rotatable=1;deletable=1;editable=1;" vertex="1" parent="xBfSmEdKa_RjBlRWM9iu-87">
          <mxGeometry x="30" width="210" height="30" as="geometry">
            <mxRectangle width="210" height="30" as="alternateBounds" />
          </mxGeometry>
        </mxCell>
        <mxCell id="xBfSmEdKa_RjBlRWM9iu-91" value="" style="group" vertex="1" connectable="0" parent="1">
          <mxGeometry x="110" y="890" width="250" height="120" as="geometry" />
        </mxCell>
        <mxCell id="xBfSmEdKa_RjBlRWM9iu-75" value="company_user_role" style="shape=table;startSize=30;container=1;collapsible=1;childLayout=tableLayout;fixedRows=1;rowLines=0;fontStyle=1;align=center;resizeLast=1;movable=1;resizable=1;rotatable=1;deletable=1;editable=1;connectable=1;" vertex="1" parent="xBfSmEdKa_RjBlRWM9iu-91">
          <mxGeometry width="250" height="120" as="geometry" />
        </mxCell>
        <mxCell id="xBfSmEdKa_RjBlRWM9iu-76" value="" style="shape=partialRectangle;collapsible=0;dropTarget=0;pointerEvents=0;fillColor=none;points=[[0,0.5],[1,0.5]];portConstraint=eastwest;top=0;left=0;right=0;bottom=1;movable=0;resizable=0;rotatable=0;deletable=0;editable=0;connectable=0;" vertex="1" parent="xBfSmEdKa_RjBlRWM9iu-75">
          <mxGeometry y="30" width="250" height="30" as="geometry" />
        </mxCell>
        <mxCell id="xBfSmEdKa_RjBlRWM9iu-77" value="PK" style="shape=partialRectangle;overflow=hidden;connectable=0;fillColor=none;top=0;left=0;bottom=0;right=0;fontStyle=1;movable=0;resizable=0;rotatable=0;deletable=0;editable=0;" vertex="1" parent="xBfSmEdKa_RjBlRWM9iu-76">
          <mxGeometry width="30" height="30" as="geometry">
            <mxRectangle width="30" height="30" as="alternateBounds" />
          </mxGeometry>
        </mxCell>
        <mxCell id="xBfSmEdKa_RjBlRWM9iu-78" value="id int NOT NULL " style="shape=partialRectangle;overflow=hidden;connectable=0;fillColor=none;top=0;left=0;bottom=0;right=0;align=left;spacingLeft=6;fontStyle=5;movable=0;resizable=0;rotatable=0;deletable=0;editable=0;" vertex="1" parent="xBfSmEdKa_RjBlRWM9iu-76">
          <mxGeometry x="30" width="220" height="30" as="geometry">
            <mxRectangle width="220" height="30" as="alternateBounds" />
          </mxGeometry>
        </mxCell>
        <mxCell id="xBfSmEdKa_RjBlRWM9iu-79" value="" style="shape=partialRectangle;collapsible=0;dropTarget=0;pointerEvents=0;fillColor=none;points=[[0,0.5],[1,0.5]];portConstraint=eastwest;top=0;left=0;right=0;bottom=0;movable=0;resizable=0;rotatable=0;deletable=0;editable=0;connectable=0;" vertex="1" parent="xBfSmEdKa_RjBlRWM9iu-75">
          <mxGeometry y="60" width="250" height="30" as="geometry" />
        </mxCell>
        <mxCell id="xBfSmEdKa_RjBlRWM9iu-80" value="" style="shape=partialRectangle;overflow=hidden;connectable=0;fillColor=none;top=0;left=0;bottom=0;right=0;movable=0;resizable=0;rotatable=0;deletable=0;editable=0;" vertex="1" parent="xBfSmEdKa_RjBlRWM9iu-79">
          <mxGeometry width="30" height="30" as="geometry">
            <mxRectangle width="30" height="30" as="alternateBounds" />
          </mxGeometry>
        </mxCell>
        <mxCell id="xBfSmEdKa_RjBlRWM9iu-81" value="user_id" style="shape=partialRectangle;overflow=hidden;connectable=1;fillColor=none;top=0;left=0;bottom=0;right=0;align=left;spacingLeft=6;movable=1;resizable=1;rotatable=1;deletable=1;editable=1;" vertex="1" parent="xBfSmEdKa_RjBlRWM9iu-79">
          <mxGeometry x="30" width="220" height="30" as="geometry">
            <mxRectangle width="220" height="30" as="alternateBounds" />
          </mxGeometry>
        </mxCell>
        <mxCell id="xBfSmEdKa_RjBlRWM9iu-82" value="role_id " style="shape=partialRectangle;overflow=hidden;connectable=1;fillColor=none;top=0;left=0;bottom=0;right=0;align=left;spacingLeft=6;movable=1;resizable=1;rotatable=1;deletable=1;editable=1;" vertex="1" parent="xBfSmEdKa_RjBlRWM9iu-91">
          <mxGeometry x="30" y="90" width="220" height="30" as="geometry">
            <mxRectangle width="220" height="30" as="alternateBounds" />
          </mxGeometry>
        </mxCell>
        <mxCell id="xBfSmEdKa_RjBlRWM9iu-106" value="" style="group" vertex="1" connectable="0" parent="1">
          <mxGeometry x="1010" y="725" width="300" height="150" as="geometry" />
        </mxCell>
        <mxCell id="xBfSmEdKa_RjBlRWM9iu-94" value="company_subscription" style="shape=table;startSize=30;container=1;collapsible=1;childLayout=tableLayout;fixedRows=1;rowLines=0;fontStyle=1;align=center;resizeLast=1;" vertex="1" parent="xBfSmEdKa_RjBlRWM9iu-106">
          <mxGeometry width="300" height="150" as="geometry" />
        </mxCell>
        <mxCell id="xBfSmEdKa_RjBlRWM9iu-95" value="" style="shape=partialRectangle;collapsible=0;dropTarget=0;pointerEvents=0;fillColor=none;points=[[0,0.5],[1,0.5]];portConstraint=eastwest;top=0;left=0;right=0;bottom=1;" vertex="1" parent="xBfSmEdKa_RjBlRWM9iu-94">
          <mxGeometry y="30" width="300" height="30" as="geometry" />
        </mxCell>
        <mxCell id="xBfSmEdKa_RjBlRWM9iu-96" value="PK" style="shape=partialRectangle;overflow=hidden;connectable=0;fillColor=none;top=0;left=0;bottom=0;right=0;fontStyle=1;" vertex="1" parent="xBfSmEdKa_RjBlRWM9iu-95">
          <mxGeometry width="30" height="30" as="geometry">
            <mxRectangle width="30" height="30" as="alternateBounds" />
          </mxGeometry>
        </mxCell>
        <mxCell id="xBfSmEdKa_RjBlRWM9iu-97" value="company_subscription_id int NOT NULL " style="shape=partialRectangle;overflow=hidden;connectable=0;fillColor=none;top=0;left=0;bottom=0;right=0;align=left;spacingLeft=6;fontStyle=5;" vertex="1" parent="xBfSmEdKa_RjBlRWM9iu-95">
          <mxGeometry x="30" width="270" height="30" as="geometry">
            <mxRectangle width="270" height="30" as="alternateBounds" />
          </mxGeometry>
        </mxCell>
        <mxCell id="xBfSmEdKa_RjBlRWM9iu-98" value="" style="shape=partialRectangle;collapsible=0;dropTarget=0;pointerEvents=0;fillColor=none;points=[[0,0.5],[1,0.5]];portConstraint=eastwest;top=0;left=0;right=0;bottom=0;" vertex="1" parent="xBfSmEdKa_RjBlRWM9iu-94">
          <mxGeometry y="60" width="300" height="30" as="geometry" />
        </mxCell>
        <mxCell id="xBfSmEdKa_RjBlRWM9iu-99" value="" style="shape=partialRectangle;overflow=hidden;connectable=0;fillColor=none;top=0;left=0;bottom=0;right=0;" vertex="1" parent="xBfSmEdKa_RjBlRWM9iu-98">
          <mxGeometry width="30" height="30" as="geometry">
            <mxRectangle width="30" height="30" as="alternateBounds" />
          </mxGeometry>
        </mxCell>
        <mxCell id="xBfSmEdKa_RjBlRWM9iu-100" value="belong_company_id" style="shape=partialRectangle;overflow=hidden;connectable=0;fillColor=none;top=0;left=0;bottom=0;right=0;align=left;spacingLeft=6;" vertex="1" parent="xBfSmEdKa_RjBlRWM9iu-98">
          <mxGeometry x="30" width="270" height="30" as="geometry">
            <mxRectangle width="270" height="30" as="alternateBounds" />
          </mxGeometry>
        </mxCell>
        <mxCell id="xBfSmEdKa_RjBlRWM9iu-101" value="company_subscription_type" style="shape=partialRectangle;overflow=hidden;connectable=0;fillColor=none;top=0;left=0;bottom=0;right=0;align=left;spacingLeft=6;" vertex="1" parent="xBfSmEdKa_RjBlRWM9iu-106">
          <mxGeometry x="30" y="90" width="270" height="30" as="geometry">
            <mxRectangle width="270" height="30" as="alternateBounds" />
          </mxGeometry>
        </mxCell>
        <mxCell id="xBfSmEdKa_RjBlRWM9iu-102" value="template_id" style="shape=partialRectangle;overflow=hidden;connectable=0;fillColor=none;top=0;left=0;bottom=0;right=0;align=left;spacingLeft=6;" vertex="1" parent="xBfSmEdKa_RjBlRWM9iu-106">
          <mxGeometry x="30" y="120" width="270" height="30" as="geometry">
            <mxRectangle width="270" height="30" as="alternateBounds" />
          </mxGeometry>
        </mxCell>
        <mxCell id="xBfSmEdKa_RjBlRWM9iu-109" style="edgeStyle=orthogonalEdgeStyle;rounded=0;orthogonalLoop=1;jettySize=auto;html=1;exitX=0;exitY=0.5;exitDx=0;exitDy=0;entryX=0.312;entryY=-0.017;entryDx=0;entryDy=0;entryPerimeter=0;endArrow=ERoneToMany;fontSize=12;startArrow=ERone;endFill=1;startFill=0;" edge="1" parent="1" source="xBfSmEdKa_RjBlRWM9iu-25" target="xBfSmEdKa_RjBlRWM9iu-57">
          <mxGeometry relative="1" as="geometry" />
        </mxCell>
        <mxCell id="xBfSmEdKa_RjBlRWM9iu-118" value="" style="group" vertex="1" connectable="0" parent="1">
          <mxGeometry x="560" y="740" width="350" height="120" as="geometry" />
        </mxCell>
        <mxCell id="xBfSmEdKa_RjBlRWM9iu-110" value="company_subscription_feature" style="shape=table;startSize=30;container=1;collapsible=1;childLayout=tableLayout;fixedRows=1;rowLines=0;fontStyle=1;align=center;resizeLast=1;" vertex="1" parent="xBfSmEdKa_RjBlRWM9iu-118">
          <mxGeometry width="350" height="120" as="geometry" />
        </mxCell>
        <mxCell id="xBfSmEdKa_RjBlRWM9iu-111" value="" style="shape=partialRectangle;collapsible=0;dropTarget=0;pointerEvents=0;fillColor=none;points=[[0,0.5],[1,0.5]];portConstraint=eastwest;top=0;left=0;right=0;bottom=1;" vertex="1" parent="xBfSmEdKa_RjBlRWM9iu-110">
          <mxGeometry y="30" width="350" height="30" as="geometry" />
        </mxCell>
        <mxCell id="xBfSmEdKa_RjBlRWM9iu-112" value="PK" style="shape=partialRectangle;overflow=hidden;connectable=0;fillColor=none;top=0;left=0;bottom=0;right=0;fontStyle=1;" vertex="1" parent="xBfSmEdKa_RjBlRWM9iu-111">
          <mxGeometry width="30" height="30" as="geometry">
            <mxRectangle width="30" height="30" as="alternateBounds" />
          </mxGeometry>
        </mxCell>
        <mxCell id="xBfSmEdKa_RjBlRWM9iu-113" value="company_subscription_feature_id int NOT NULL " style="shape=partialRectangle;overflow=hidden;connectable=0;fillColor=none;top=0;left=0;bottom=0;right=0;align=left;spacingLeft=6;fontStyle=5;" vertex="1" parent="xBfSmEdKa_RjBlRWM9iu-111">
          <mxGeometry x="30" width="320" height="30" as="geometry">
            <mxRectangle width="320" height="30" as="alternateBounds" />
          </mxGeometry>
        </mxCell>
        <mxCell id="xBfSmEdKa_RjBlRWM9iu-114" value="" style="shape=partialRectangle;collapsible=0;dropTarget=0;pointerEvents=0;fillColor=none;points=[[0,0.5],[1,0.5]];portConstraint=eastwest;top=0;left=0;right=0;bottom=0;" vertex="1" parent="xBfSmEdKa_RjBlRWM9iu-110">
          <mxGeometry y="60" width="350" height="30" as="geometry" />
        </mxCell>
        <mxCell id="xBfSmEdKa_RjBlRWM9iu-115" value="" style="shape=partialRectangle;overflow=hidden;connectable=0;fillColor=none;top=0;left=0;bottom=0;right=0;" vertex="1" parent="xBfSmEdKa_RjBlRWM9iu-114">
          <mxGeometry width="30" height="30" as="geometry">
            <mxRectangle width="30" height="30" as="alternateBounds" />
          </mxGeometry>
        </mxCell>
        <mxCell id="xBfSmEdKa_RjBlRWM9iu-116" value="company_subscription_id" style="shape=partialRectangle;overflow=hidden;connectable=0;fillColor=none;top=0;left=0;bottom=0;right=0;align=left;spacingLeft=6;" vertex="1" parent="xBfSmEdKa_RjBlRWM9iu-114">
          <mxGeometry x="30" width="320" height="30" as="geometry">
            <mxRectangle width="320" height="30" as="alternateBounds" />
          </mxGeometry>
        </mxCell>
        <mxCell id="xBfSmEdKa_RjBlRWM9iu-117" value="feature_id" style="shape=partialRectangle;overflow=hidden;connectable=0;fillColor=none;top=0;left=0;bottom=0;right=0;align=left;spacingLeft=6;" vertex="1" parent="xBfSmEdKa_RjBlRWM9iu-118">
          <mxGeometry x="30" y="90" width="320" height="30" as="geometry">
            <mxRectangle width="320" height="30" as="alternateBounds" />
          </mxGeometry>
        </mxCell>
        <mxCell id="xBfSmEdKa_RjBlRWM9iu-121" style="edgeStyle=orthogonalEdgeStyle;rounded=0;orthogonalLoop=1;jettySize=auto;html=1;endArrow=ERoneToMany;fontSize=12;startArrow=ERone;endFill=1;startFill=0;" edge="1" parent="1" source="xBfSmEdKa_RjBlRWM9iu-94">
          <mxGeometry relative="1" as="geometry">
            <mxPoint x="910" y="810" as="targetPoint" />
          </mxGeometry>
        </mxCell>
        <mxCell id="xBfSmEdKa_RjBlRWM9iu-122" style="edgeStyle=orthogonalEdgeStyle;rounded=0;orthogonalLoop=1;jettySize=auto;html=1;exitX=0;exitY=0.5;exitDx=0;exitDy=0;entryX=1;entryY=0.5;entryDx=0;entryDy=0;endArrow=ERoneToMany;fontSize=12;startArrow=ERone;endFill=1;startFill=0;" edge="1" parent="1" source="xBfSmEdKa_RjBlRWM9iu-2" target="xBfSmEdKa_RjBlRWM9iu-86">
          <mxGeometry relative="1" as="geometry" />
        </mxCell>
        <mxCell id="xBfSmEdKa_RjBlRWM9iu-124" style="edgeStyle=orthogonalEdgeStyle;rounded=0;orthogonalLoop=1;jettySize=auto;html=1;exitX=1;exitY=0.5;exitDx=0;exitDy=0;endArrow=ERoneToMany;fontSize=12;startArrow=ERone;endFill=1;startFill=0;" edge="1" parent="1" source="xBfSmEdKa_RjBlRWM9iu-2">
          <mxGeometry relative="1" as="geometry">
            <mxPoint x="1160" y="870" as="targetPoint" />
          </mxGeometry>
        </mxCell>
        <mxCell id="xBfSmEdKa_RjBlRWM9iu-125" value="订阅类型为标准版时，有对应的订阅模版" style="text;html=1;resizable=0;autosize=1;align=center;verticalAlign=middle;points=[];fillColor=none;strokeColor=none;rounded=0;" vertex="1" parent="1">
          <mxGeometry x="1240" y="635" width="240" height="30" as="geometry" />
        </mxCell>
        <mxCell id="xBfSmEdKa_RjBlRWM9iu-126" value="订阅类型为非标准版时，直接关联权限" style="text;html=1;resizable=0;autosize=1;align=center;verticalAlign=middle;points=[];fillColor=none;strokeColor=none;rounded=0;" vertex="1" parent="1">
          <mxGeometry x="730" y="635" width="230" height="30" as="geometry" />
        </mxCell>
        <mxCell id="xBfSmEdKa_RjBlRWM9iu-129" value="parent_feature_id" style="shape=partialRectangle;overflow=hidden;connectable=0;fillColor=none;top=0;left=0;bottom=0;right=0;align=left;spacingLeft=6;" vertex="1" parent="1">
          <mxGeometry x="630" y="530" width="220" height="30" as="geometry">
            <mxRectangle width="220" height="30" as="alternateBounds" />
          </mxGeometry>
        </mxCell>
        <mxCell id="xBfSmEdKa_RjBlRWM9iu-130" value="url" style="shape=partialRectangle;overflow=hidden;connectable=0;fillColor=none;top=0;left=0;bottom=0;right=0;align=left;spacingLeft=6;" vertex="1" parent="1">
          <mxGeometry x="630" y="560" width="220" height="30" as="geometry">
            <mxRectangle width="220" height="30" as="alternateBounds" />
          </mxGeometry>
        </mxCell>
      </root>
    </mxGraphModel>
  </diagram>
</mxfile>
